# xmcd
#
# Track frame offsets:
#	150
#	13107
#	28605
#	48012
#	65052
#	77857
#	91882
#	105967
#	127710
#	143585
#	160825
#	175522
#	195517
#	209107
#	226530
#	241585
#	255285
#	270575
#	286585
#	299420
#	319975
#	334805
#
# Disc length: 4726 seconds
#
# Revision: 1
# Processed by: cddbd v1.5.2PL0 Copyright (c) Steve Scherf et al.
# Submitted via: audiograbber 1.83.01
#
DISCID=1c127416
DTITLE=New Country - Volume3
DYEAR=1999
DGENRE=Country
TTITLE0=Liza Jane
TTITLE1=Lucky In Love
TTITLE2=Gone Country
TTITLE3=Hoky Tonk Attitude
TTITLE4=Blink Ofd An Eye
TTITLE5=Better Thing To do
TTITLE6=I Saw The Light
TTITLE7=Straberry Wine
TTITLE8=Just Between You And Me
TTITLE9=I love The Way You Do That
TTITLE10=There'll Be No Teardrops Tonight
TTITLE11=Honky Tonk Songs
TTITLE12=Whatever Comes First
TTITLE13=I Can Love You Better
TTITLE14=Deep Down
TTITLE15=That's My Story
TTITLE16=Little Ramona
TTITLE17=Blame It On You Heart
TTITLE18=Six Days On The Road
TTITLE19=Commitment
TTITLE20=Bye Bye
TTITLE21=Dance The Night Away
EXTD=
EXTT0=
EXTT1=
EXTT2=
EXTT3=
EXTT4=
EXTT5=
EXTT6=
EXTT7=
EXTT8=
EXTT9=
EXTT10=
EXTT11=
EXTT12=
EXTT13=
EXTT14=
EXTT15=
EXTT16=
EXTT17=
EXTT18=
EXTT19=
EXTT20=
EXTT21=
PLAYORDER=
